<svg width="59" height="59" viewBox="0 0 59 59" fill="none" xmlns="http://www.w3.org/2000/svg">
<path d="M0 29.7436C0 45.8023 13.0182 58.8205 29.0769 58.8205C45.1357 58.8205 58.1538 45.8023 58.1538 29.7436C58.1538 13.6849 45.1357 0.666672 29.0769 0.666672C13.0182 0.666672 0 13.6849 0 29.7436ZM21.4581 39.9325C20.7484 40.6422 19.5977 40.6422 18.888 39.9325C18.1783 39.2228 18.1783 38.0721 18.888 37.3624L33.7761 22.4743L23.7165 22.4743C22.7128 22.4743 21.8992 21.6607 21.8992 20.657C21.8992 19.6534 22.7128 18.8397 23.7165 18.8397L38.1635 18.8397C39.1671 18.8397 39.9808 19.6533 39.9808 20.657V35.1042C39.9808 36.1079 39.1671 36.9215 38.1635 36.9215C37.1598 36.9215 36.3461 36.1079 36.3461 35.1042L36.3461 25.0444L21.4581 39.9325Z" fill="#780000"/>
</svg>
