<svg width="44" height="44" viewBox="0 0 44 44" fill="none" xmlns="http://www.w3.org/2000/svg">
<mask id="mask0_646_654" style="mask-type:alpha" maskUnits="userSpaceOnUse" x="0" y="0" width="44" height="44">
<rect width="44" height="44" fill="#D9D9D9"/>
</mask>
<g mask="url(#mask0_646_654)">
<path d="M22 40.3334L21.5417 34.8334H21.0833C16.7444 34.8334 13.0625 33.3209 10.0375 30.2959C7.0125 27.2709 5.5 23.589 5.5 19.2501C5.5 14.9112 7.0125 11.2292 10.0375 8.20425C13.0625 5.17925 16.7444 3.66675 21.0833 3.66675C23.2528 3.66675 25.2771 4.07161 27.1562 4.88133C29.0354 5.69105 30.6854 6.80633 32.1062 8.22716C33.5271 9.648 34.6424 11.298 35.4521 13.1772C36.2618 15.0563 36.6667 17.0806 36.6667 19.2501C36.6667 21.5417 36.2924 23.7417 35.5438 25.8501C34.7951 27.9584 33.7715 29.914 32.4729 31.7167C31.1743 33.5195 29.6312 35.1542 27.8437 36.6209C26.0562 38.0876 24.1083 39.3251 22 40.3334ZM25.6667 33.6417C27.8361 31.8084 29.6007 29.6619 30.9604 27.2022C32.3201 24.7424 33 22.0917 33 19.2501C33 15.9195 31.8465 13.1008 29.5396 10.7938C27.2326 8.48689 24.4139 7.33341 21.0833 7.33341C17.7528 7.33341 14.934 8.48689 12.6271 10.7938C10.3201 13.1008 9.16667 15.9195 9.16667 19.2501C9.16667 22.5806 10.3201 25.3994 12.6271 27.7063C14.934 30.0133 17.7528 31.1667 21.0833 31.1667H25.6667V33.6417ZM21.0375 29.2876C21.5569 29.2876 22 29.1042 22.3667 28.7376C22.7333 28.3709 22.9167 27.9279 22.9167 27.4084C22.9167 26.889 22.7333 26.4459 22.3667 26.0792C22 25.7126 21.5569 25.5292 21.0375 25.5292C20.5181 25.5292 20.075 25.7126 19.7083 26.0792C19.3417 26.4459 19.1583 26.889 19.1583 27.4084C19.1583 27.9279 19.3417 28.3709 19.7083 28.7376C20.075 29.1042 20.5181 29.2876 21.0375 29.2876ZM19.7083 23.4667H22.4583C22.4583 22.5501 22.55 21.9084 22.7333 21.5417C22.9167 21.1751 23.4972 20.5029 24.475 19.5251C25.025 18.9751 25.4833 18.3792 25.85 17.7376C26.2167 17.0959 26.4 16.4084 26.4 15.6751C26.4 14.1167 25.8729 12.948 24.8187 12.1688C23.7646 11.3897 22.5194 11.0001 21.0833 11.0001C19.7389 11.0001 18.6083 11.3744 17.6917 12.123C16.775 12.8716 16.1333 13.7806 15.7667 14.8501L18.3333 15.8584C18.4861 15.339 18.7764 14.8272 19.2042 14.323C19.6319 13.8188 20.2583 13.5667 21.0833 13.5667C21.9083 13.5667 22.5271 13.7959 22.9396 14.2542C23.3521 14.7126 23.5583 15.2167 23.5583 15.7667C23.5583 16.2862 23.4056 16.7522 23.1 17.1647C22.7944 17.5772 22.4278 17.9973 22 18.4251C20.9306 19.3417 20.2812 20.0674 20.0521 20.6022C19.8229 21.1369 19.7083 22.0917 19.7083 23.4667Z" fill="#780000"/>
</g>
</svg>
