<svg width="70" height="70" viewBox="0 0 70 70" fill="none" xmlns="http://www.w3.org/2000/svg">
<path d="M54.6875 70C63.1444 70 70 63.1444 70 54.6875C70 46.2306 63.1444 39.375 54.6875 39.375C46.2306 39.375 39.375 46.2306 39.375 54.6875C39.375 63.1444 46.2306 70 54.6875 70ZM56.875 48.125V52.5H61.25C62.4579 52.5 63.4375 53.4796 63.4375 54.6875C63.4375 55.8954 62.4579 56.875 61.25 56.875H56.875V61.25C56.875 62.4579 55.8954 63.4375 54.6875 63.4375C53.4796 63.4375 52.5 62.4579 52.5 61.25V56.875H48.125C46.9171 56.875 45.9375 55.8954 45.9375 54.6875C45.9375 53.4796 46.9171 52.5 48.125 52.5H52.5V48.125C52.5 46.9171 53.4796 45.9375 54.6875 45.9375C55.8954 45.9375 56.875 46.9171 56.875 48.125Z" fill="#FDF0D5"/>
<path d="M48.125 21.875C48.125 29.1237 42.2487 35 35 35C27.7513 35 21.875 29.1237 21.875 21.875C21.875 14.6263 27.7513 8.75 35 8.75C42.2487 8.75 48.125 14.6263 48.125 21.875ZM35 30.625C39.8325 30.625 43.75 26.7075 43.75 21.875C43.75 17.0425 39.8325 13.125 35 13.125C30.1675 13.125 26.25 17.0425 26.25 21.875C26.25 26.7075 30.1675 30.625 35 30.625Z" fill="#FDF0D5"/>
<path d="M45.3597 61.25C44.6989 59.8522 44.2432 58.3822 44.0198 56.8597H14.6019C14.6102 55.7799 15.5016 52.5455 19.4712 49.5779C23.2881 46.7241 30.4656 43.75 43.8612 43.75C45.3857 43.75 46.8295 43.7885 48.1971 43.8611C49.5147 42.3676 51.097 41.0164 52.8941 39.8446C50.1642 39.542 47.1617 39.375 43.8613 39.375C14.6019 39.375 8.75 52.5 8.75 56.875C8.75 61.25 14.6019 61.25 14.6019 61.25H45.3597Z" fill="#FDF0D5"/>
</svg>
