<svg width="52" height="56" viewBox="0 0 52 56" fill="none" xmlns="http://www.w3.org/2000/svg">
<g clip-path="url(#clip0_249_191)">
<path d="M11.8751 4.64972C11.0611 3.52272 9.51421 3.41901 8.57675 4.42859L5.21651 8.04731C3.6452 9.73949 3.06758 12.1368 3.75407 14.2396C6.51098 22.6843 11.0245 30.6135 17.2988 37.3706C23.5732 44.1273 30.936 48.9881 38.7774 51.9571C40.73 52.6964 42.9562 52.0744 44.5276 50.3822L47.8878 46.7635C48.8251 45.7541 48.7289 44.0881 47.6824 43.2113L40.1872 36.9334C39.6526 36.4857 38.9565 36.3275 38.2996 36.5043L31.1851 38.4199C29.2527 38.94 27.2084 38.3302 25.8 36.8134L17.8161 28.2154C16.4076 26.6986 15.8414 24.4972 16.3245 22.4161L18.1031 14.7544C18.2674 14.0468 18.1204 13.2971 17.7046 12.7214L11.8751 4.64972ZM6.1255 1.78877C8.53739 -0.808636 12.5174 -0.541789 14.6114 2.35772L20.441 10.4294C21.5108 11.9106 21.8888 13.8393 21.4662 15.6598L19.6876 23.3215C19.4998 24.1304 19.7199 24.9861 20.2673 25.5756L28.2512 34.1736C28.7987 34.7632 29.5932 35.0004 30.3443 34.798L37.4589 32.8826C39.1492 32.4275 40.9403 32.8345 42.3157 33.9866L49.8108 40.2647C52.5031 42.5197 52.7508 46.8059 50.3389 49.4032L46.9788 53.0222C44.5747 55.6112 40.9789 56.748 37.6279 55.4792C29.307 52.3288 21.4967 47.1709 14.8476 40.0103C8.19845 32.8497 3.40909 24.4386 0.483723 15.4779C-0.694467 11.8689 0.361172 7.99652 2.76526 5.4075L6.1255 1.78877Z" fill="#FDF0D5"/>
<path d="M35.75 1.75C35.75 0.783503 36.4777 0 37.375 0H50.375C51.2723 0 52 0.783503 52 1.75V15.75C52 16.7165 51.2723 17.5 50.375 17.5C49.4777 17.5 48.75 16.7165 48.75 15.75V5.97489L35.2742 20.4874C34.6395 21.1709 33.6105 21.1709 32.9758 20.4874C32.3413 19.804 32.3413 18.696 32.9758 18.0126L46.4519 3.5H37.375C36.4777 3.5 35.75 2.7165 35.75 1.75Z" fill="#FDF0D5"/>
</g>
<defs>
<clipPath id="clip0_249_191">
<rect width="52" height="56" fill="white"/>
</clipPath>
</defs>
</svg>
