<svg width="62" height="61" viewBox="0 0 62 61" fill="none" xmlns="http://www.w3.org/2000/svg">
<path d="M58.125 53.375C58.125 53.375 62 53.375 62 49.5625C62 45.75 58.125 34.3125 42.625 34.3125C27.125 34.3125 23.25 45.75 23.25 49.5625C23.25 53.375 27.125 53.375 27.125 53.375H58.125ZM27.2116 49.5625C27.1982 49.561 27.1794 49.5587 27.1566 49.5549C27.1458 49.553 27.1353 49.5511 27.125 49.5492C27.1307 48.5427 27.7716 45.6238 30.0671 42.989C32.2142 40.5246 35.9704 38.125 42.625 38.125C49.2795 38.125 53.036 40.5246 55.1827 42.989C57.4783 45.6238 58.1192 48.5427 58.125 49.5492C58.1145 49.5511 58.1041 49.553 58.0936 49.5549C58.0708 49.5587 58.0518 49.561 58.0386 49.5625H27.2116Z" fill="#FDF0D5"/>
<path d="M42.625 26.6875C46.9053 26.6875 50.375 23.2737 50.375 19.0625C50.375 14.8513 46.9053 11.4375 42.625 11.4375C38.3448 11.4375 34.875 14.8513 34.875 19.0625C34.875 23.2737 38.3448 26.6875 42.625 26.6875ZM54.25 19.0625C54.25 25.3792 49.0455 30.5 42.625 30.5C36.2047 30.5 31 25.3792 31 19.0625C31 12.7458 36.2047 7.625 42.625 7.625C49.0455 7.625 54.25 12.7458 54.25 19.0625Z" fill="#FDF0D5"/>
<path d="M26.8767 35.3798C25.4515 34.9313 23.8682 34.6053 22.1118 34.4385C21.2426 34.356 20.3309 34.3125 19.375 34.3125C3.875 34.3125 0 45.75 0 49.5625C0 52.1043 1.29167 53.375 3.875 53.375H20.2134C19.6678 52.2919 19.375 51.0078 19.375 49.5625C19.375 45.7107 20.8368 41.7774 23.5981 38.4918C24.5414 37.3691 25.6365 36.3222 26.8767 35.3798ZM19.0652 38.1269C16.7499 41.6081 15.5 45.5773 15.5 49.5625H3.875C3.875 48.5686 4.51143 45.6356 6.81713 42.989C8.93064 40.5631 12.6034 38.2001 19.0652 38.1269Z" fill="#FDF0D5"/>
<path d="M5.8125 20.9688C5.8125 14.652 11.0172 9.53125 17.4375 9.53125C23.8578 9.53125 29.0625 14.652 29.0625 20.9688C29.0625 27.2855 23.8578 32.4062 17.4375 32.4062C11.0172 32.4062 5.8125 27.2855 5.8125 20.9688ZM17.4375 13.3438C13.1573 13.3438 9.6875 16.7576 9.6875 20.9688C9.6875 25.1799 13.1573 28.5938 17.4375 28.5938C21.7177 28.5938 25.1875 25.1799 25.1875 20.9688C25.1875 16.7576 21.7177 13.3438 17.4375 13.3438Z" fill="#FDF0D5"/>
</svg>
