<svg width="25" height="25" viewBox="0 0 25 25" fill="none" xmlns="http://www.w3.org/2000/svg">
<mask id="mask0_605_660" style="mask-type:alpha" maskUnits="userSpaceOnUse" x="0" y="0" width="25" height="25">
<rect x="0.0615234" y="0.823486" width="24" height="24" fill="#D9D9D9"/>
</mask>
<g mask="url(#mask0_605_660)">
<path d="M2.06152 21.8235C1.51152 21.8235 1.04069 21.6277 0.649023 21.236C0.257357 20.8443 0.0615234 20.3735 0.0615234 19.8235V5.82349C0.0615234 5.27349 0.257357 4.80265 0.649023 4.41099C1.04069 4.01932 1.51152 3.82349 2.06152 3.82349H22.0615C22.6115 3.82349 23.0824 4.01932 23.474 4.41099C23.8657 4.80265 24.0615 5.27349 24.0615 5.82349V19.8235C24.0615 20.3735 23.8657 20.8443 23.474 21.236C23.0824 21.6277 22.6115 21.8235 22.0615 21.8235H2.06152ZM15.9615 19.8235H22.0615V5.82349H2.06152V19.8235H2.16152C2.86152 18.5735 3.82819 17.5943 5.06152 16.886C6.29486 16.1777 7.62819 15.8235 9.06152 15.8235C10.4949 15.8235 11.8282 16.1777 13.0615 16.886C14.2949 17.5943 15.2615 18.5735 15.9615 19.8235ZM9.06152 14.8235C9.89486 14.8235 10.6032 14.5318 11.1865 13.9485C11.7699 13.3652 12.0615 12.6568 12.0615 11.8235C12.0615 10.9902 11.7699 10.2818 11.1865 9.69849C10.6032 9.11515 9.89486 8.82349 9.06152 8.82349C8.22819 8.82349 7.51986 9.11515 6.93652 9.69849C6.35319 10.2818 6.06152 10.9902 6.06152 11.8235C6.06152 12.6568 6.35319 13.3652 6.93652 13.9485C7.51986 14.5318 8.22819 14.8235 9.06152 14.8235ZM19.0615 18.8235L21.0615 16.8235L19.5615 14.8235H17.9115C17.8115 14.5235 17.7282 14.2027 17.6615 13.861C17.5949 13.5193 17.5615 13.1735 17.5615 12.8235C17.5615 12.4735 17.5949 12.136 17.6615 11.811C17.7282 11.486 17.8115 11.1568 17.9115 10.8235H19.5615L21.0615 8.82349L19.0615 6.82349C18.1615 7.52349 17.4365 8.41099 16.8865 9.48599C16.3365 10.561 16.0615 11.6735 16.0615 12.8235C16.0615 13.9735 16.3365 15.086 16.8865 16.161C17.4365 17.236 18.1615 18.1235 19.0615 18.8235ZM4.61152 19.8235H13.5115C12.9449 19.1902 12.274 18.6985 11.499 18.3485C10.724 17.9985 9.91152 17.8235 9.06152 17.8235C8.21152 17.8235 7.40319 17.9985 6.63652 18.3485C5.86986 18.6985 5.19486 19.1902 4.61152 19.8235ZM9.06152 12.8235C8.77819 12.8235 8.54069 12.7277 8.34902 12.536C8.15736 12.3443 8.06152 12.1068 8.06152 11.8235C8.06152 11.5402 8.15736 11.3027 8.34902 11.111C8.54069 10.9193 8.77819 10.8235 9.06152 10.8235C9.34486 10.8235 9.58236 10.9193 9.77402 11.111C9.96569 11.3027 10.0615 11.5402 10.0615 11.8235C10.0615 12.1068 9.96569 12.3443 9.77402 12.536C9.58236 12.7277 9.34486 12.8235 9.06152 12.8235Z" fill="#780000"/>
</g>
</svg>
