<svg width="62" height="61" viewBox="0 0 62 61" fill="none" xmlns="http://www.w3.org/2000/svg">
<g clip-path="url(#clip0_249_184)">
<path d="M25.1875 26.6875C24.1175 26.6875 23.25 27.541 23.25 28.5938C23.25 29.6465 24.1175 30.5 25.1875 30.5H40.6875C41.7574 30.5 42.625 29.6465 42.625 28.5938C42.625 27.541 41.7574 26.6875 40.6875 26.6875H25.1875Z" fill="#FDF0D5"/>
<path d="M5.9375 4C4.86745 4 4 4.85347 4 5.90625C4 6.95903 4.86745 7.8125 5.9375 7.8125H10.2372L11.7938 13.9384L17.5957 44.3824C17.7675 45.284 18.5676 45.9375 19.5 45.9375H23.375C19.0948 45.9375 15.625 49.3512 15.625 53.5625C15.625 57.7738 19.0948 61.1875 23.375 61.1875C27.6552 61.1875 31.125 57.7738 31.125 53.5625C31.125 49.3512 27.6552 45.9375 23.375 45.9375H50.5C46.2197 45.9375 42.75 49.3512 42.75 53.5625C42.75 57.7738 46.2197 61.1875 50.5 61.1875C54.7803 61.1875 58.25 57.7738 58.25 53.5625C58.25 49.3512 54.7803 45.9375 50.5 45.9375H54.375C55.3073 45.9375 56.1075 45.284 56.2792 44.3824L62.0917 13.8825C62.1978 13.3252 62.0463 12.7502 61.6786 12.3138C61.3105 11.8775 60.7637 11.625 60.1875 11.625H15.2003L13.6296 5.44391C13.414 4.59532 12.639 4 11.75 4H5.9375ZM21.108 42.125L16.022 15.4375H57.8528L52.7669 42.125H21.108ZM27.25 53.5625C27.25 55.6681 25.5151 57.375 23.375 57.375C21.2349 57.375 19.5 55.6681 19.5 53.5625C19.5 51.4569 21.2349 49.75 23.375 49.75C25.5151 49.75 27.25 51.4569 27.25 53.5625ZM54.375 53.5625C54.375 55.6681 52.6402 57.375 50.5 57.375C48.3598 57.375 46.625 55.6681 46.625 53.5625C46.625 51.4569 48.3598 49.75 50.5 49.75C52.6402 49.75 54.375 51.4569 54.375 53.5625Z" fill="#FDF0D5"/>
</g>
<defs>
<clipPath id="clip0_249_184">
<rect width="62" height="61" fill="white"/>
</clipPath>
</defs>
</svg>
