<svg width="26" height="26" viewBox="0 0 26 26" fill="none" xmlns="http://www.w3.org/2000/svg">
<g id="key">
<g id="Vector">
<path d="M0 13C0 9.41015 2.91015 6.5 6.5 6.5C8.90708 6.5 11.0072 7.80844 12.1302 9.75H22.75C22.9655 9.75 23.1722 9.8356 23.3245 9.98798L25.762 12.4255C26.0793 12.7428 26.0793 13.2572 25.762 13.5745L23.3245 16.012C23.0072 16.3293 22.4928 16.3293 22.1755 16.012L21.125 14.9615L20.0745 16.012C19.7572 16.3293 19.2428 16.3293 18.9255 16.012L17.875 14.9615L16.8245 16.012C16.5072 16.3293 15.9928 16.3293 15.6755 16.012L14.625 14.9615L13.5745 16.012C13.4222 16.1644 13.2155 16.25 13 16.25H12.1302C11.0072 18.1916 8.90708 19.5 6.5 19.5C2.91015 19.5 0 16.5899 0 13ZM6.5 8.125C3.80761 8.125 1.625 10.3076 1.625 13C1.625 15.6924 3.80761 17.875 6.5 17.875C8.44348 17.875 10.123 16.7378 10.9063 15.0889C11.0409 14.8055 11.3265 14.625 11.6402 14.625H12.6635L14.0505 13.238C14.3678 12.9207 14.8822 12.9207 15.1995 13.238L16.25 14.2885L17.3005 13.238C17.6178 12.9207 18.1322 12.9207 18.4495 13.238L19.5 14.2885L20.5505 13.238C20.8678 12.9207 21.3822 12.9207 21.6995 13.238L22.75 14.2885L24.0385 13L22.4135 11.375H11.6402C11.3265 11.375 11.0409 11.1945 10.9063 10.9111C10.123 9.26223 8.44348 8.125 6.5 8.125Z" fill="#780000"/>
<path d="M6.5 13C6.5 13.8975 5.77246 14.625 4.875 14.625C3.97754 14.625 3.25 13.8975 3.25 13C3.25 12.1025 3.97754 11.375 4.875 11.375C5.77246 11.375 6.5 12.1025 6.5 13Z" fill="#780000"/>
</g>
</g>
</svg>
